<?xml version="1.0" encoding="UTF-8" standalone="no"?>
<svg
   viewBox="0 0 1122.5196 793.70083"
   width="29.699999cm"
   height="21cm"
   version="1.1"
   id="svg29"
   sodipodi:docname="Esquisse1.dxf"
   inkscape:export-filename="Esquisse1.dxf.png"
   inkscape:export-xdpi="96"
   inkscape:export-ydpi="96"
   xmlns:inkscape="http://www.inkscape.org/namespaces/inkscape"
   xmlns:sodipodi="http://sodipodi.sourceforge.net/DTD/sodipodi-0.dtd"
   xmlns="http://www.w3.org/2000/svg"
   xmlns:svg="http://www.w3.org/2000/svg">
  <sodipodi:namedview
     id="namedview29"
     pagecolor="#ffffff"
     bordercolor="#000000"
     borderopacity="0.25"
     inkscape:showpageshadow="2"
     inkscape:pageopacity="0.0"
     inkscape:pagecheckerboard="0"
     inkscape:deskcolor="#d1d1d1"
     inkscape:document-units="cm">
    <inkscape:page
       x="0"
       y="0"
       width="1122.5195"
       height="793.70081"
       id="page2"
       margin="0"
       bleed="0" />
  </sodipodi:namedview>
  <desc
     id="desc1">Esquisse1.dxf - scale = 1.000000, origin = (0.000000, 0.000000), method = manual</desc>
  <defs
     id="defs4" />
  <g
     inkscape:groupmode="layer"
     inkscape:label="0"
     id="g29">
    <path
       d="M 999.59491,150.99788 H 130.30357 v 491.33861 h 869.29134 z"
       style="fill:none;stroke:#000000"
       id="path5" />
    <path
       style="fill:none;stroke:#000000"
       d="m 461.47824,642.33749 h -245.669"
       id="path6" />
    <path
       d="m 243.6894,150.99788 h 283.46457 -56.69292 v 15.11811 h 56.69292 v -15.11811 105.82677 h -56.69292 v -15.11811 h 56.69292 v 15.11811 H 243.6894 Z"
       style="fill:none;stroke:#000000"
       id="path7" />
    <path
       d="m 243.6894,536.47189 h 283.46457 -56.69292 v 15.1181 h 56.69292 v -15.1181 105.8268 h -56.69292 v -15.1181 h 56.69292 v 15.1181 H 243.6894 Z"
       style="fill:none;stroke:#000000"
       id="path8" />
    <path
       d="m 249.35869,291.78529 a 9.44882,9.44882 0 0 0 -18.89764,0 9.44882,9.44882 0 0 0 18.89764,0 z"
       style="fill:none;stroke:#000000"
       id="path9" />
    <path
       d="m 249.35869,501.54909 a 9.44882,9.44882 0 0 0 -18.89764,0 9.44882,9.44882 0 0 0 18.89764,0 z"
       style="fill:none;stroke:#000000"
       id="path10" />
    <path
       d="m 574.39806,291.78529 a 9.44882,9.44882 0 0 0 -18.89764,0 9.44882,9.44882 0 0 0 18.89764,0 z"
       style="fill:none;stroke:#000000"
       id="path11" />
    <path
       d="m 574.39806,501.54909 a 9.44882,9.44882 0 0 0 -18.89764,0 9.44882,9.44882 0 0 0 18.89764,0 z"
       style="fill:none;stroke:#000000"
       id="path12" />
    <path
       d="m 673.7993,288.38369 a 9.448819,9.448819 0 0 0 -18.89763,0 9.448819,9.448819 0 0 0 18.89763,0 z"
       style="fill:none;stroke:#000000"
       id="path13" />
    <path
       d="m 857.86229,288.38369 a 9.448819,9.448819 0 0 0 -18.89763,0 9.448819,9.448819 0 0 0 18.89763,0 z"
       style="fill:none;stroke:#000000"
       id="path14" />
    <path
       d="m 673.79936,504.95069 a 9.4488205,9.4488205 0 0 0 -18.89764,0 9.4488205,9.4488205 0 0 0 18.89764,0 z"
       style="fill:none;stroke:#000000"
       id="path15" />
    <path
       d="m 857.86235,504.95059 a 9.44882,9.44882 0 0 0 -18.89764,0 9.44882,9.44882 0 0 0 18.89764,0 z"
       style="fill:none;stroke:#000000"
       id="path16" />
    <path
       d="m 756.02138,245.48607 h 34.01575 v 302.36222 h -34.01575 z"
       style="fill:none;stroke:#000000"
       id="path17" />
    <path
       d="m 398.65003,502.45619 h 75.59055 v 11.3385 h -75.59055 z"
       style="fill:none;stroke:#000000"
       id="path18" />
    <path
       d="m 398.65003,279.50179 h 75.59055 v 11.3386 h -75.59055 z"
       style="fill:none;stroke:#000000"
       id="path19" />
    <path
       d="m 243.6894,150.99788 h 71.81102 V 256.82465 H 243.6894 Z"
       style="fill:none;stroke:#000000"
       id="path20" />
    <path
       d="m 479.53471,196.35221 h 11.33858 v 15.11812 h -11.33858 z"
       style="fill:none;stroke:#000000"
       id="path21" />
    <path
       d="m 366.52404,181.2341 a 9.448819,9.448819 0 0 0 -18.89763,0 9.448819,9.448819 0 0 0 18.89763,0 z"
       style="fill:none;stroke:#000000"
       id="path22" />
    <path
       d="m 436.4453,181.2341 a 9.448819,9.448819 0 0 0 -18.89763,0 9.448819,9.448819 0 0 0 18.89763,0 z"
       style="fill:none;stroke:#000000"
       id="path23" />
    <path
       style="fill:none;stroke:#000000"
       d="m 315.50024,536.46749 v 105.83"
       id="path24" />
    <path
       d="m 366.52404,612.10029 a 9.448819,9.448819 0 0 0 -18.89763,0 9.448819,9.448819 0 0 0 18.89763,0 z"
       style="fill:none;stroke:#000000"
       id="path25" />
    <path
       d="m 436.4453,612.06249 a 9.448819,9.448819 0 0 0 -18.89763,0 9.448819,9.448819 0 0 0 18.89763,0 z"
       style="fill:none;stroke:#000000"
       id="path26" />
    <path
       d="m 470.46105,581.82619 h 11.33859 v 15.1182 h -11.33859 z"
       style="fill:none;stroke:#000000"
       id="path27" />
    <path
       d="m 933.62726,325.98999 a 9.44882,9.44882 0 0 0 -18.89764,0 9.44882,9.44882 0 0 0 18.89764,0 z"
       style="fill:none;stroke:#000000"
       id="path28" />
    <path
       d="m 932.6294,467.34439 a 9.44882,9.44882 0 0 0 -18.89764,0 9.44882,9.44882 0 0 0 18.89764,0 z"
       style="fill:none;stroke:#000000"
       id="path29" />
  </g>
</svg>
