<?xml version="1.0" encoding="UTF-8" standalone="no"?>
<svg
   viewBox="0 0 1122.5196 793.7008"
   width="296.99997mm"
   height="210mm"
   version="1.1"
   id="svg22"
   xmlns="http://www.w3.org/2000/svg"
   xmlns:svg="http://www.w3.org/2000/svg">
  <desc
     id="desc1">Esquisse1.dxf - scale = 1.000000, origin = (0.000000, 0.000000), method = manual</desc>
  <defs
     id="defs4" />
  <g
     id="g22">
    <path
       d="m 560.00713,410.42361 a 0.25,0.25 0 0 0 -0.5,0 0.25,0.25 0 0 0 0.5,0 z"
       style="fill:none;stroke:#000000"
       id="path5" />
    <path
       d="m 560.00713,410.42361 a 0.25,0.25 0 0 0 -0.5,0 0.25,0.25 0 0 0 0.5,0 z"
       style="fill:none;stroke:#000000"
       id="path6" />
    <path
       d="m 435.28272,411.97321 a 0.25,0.25 0 0 0 -0.5,0 0.25,0.25 0 0 0 0.5,0 z"
       style="fill:none;stroke:#000000"
       id="path7" />
    <path
       d="m 800.00713,412.31331 a 0.25,0.25 0 0 0 -0.5,0 0.25,0.25 0 0 0 0.5,0 z"
       style="fill:none;stroke:#000000"
       id="path8" />
    <path
       d="M 1088.891,164.7543 H 30.623269 V 656.09291 H 1088.891 Z"
       style="fill:none;stroke:#000000"
       id="path9" />
    <path
       style="fill:none;stroke:#000000;stroke-dasharray:1.8898, 0.9449"
       d="M 1088.8911,164.75391 30.623129,656.09391"
       id="path10" />
    <path
       style="fill:none;stroke:#000000;stroke-dasharray:1.8898, 0.9449"
       d="m 30.623129,164.75391 1058.267971,491.34"
       id="path11" />
    <path
       style="fill:none;stroke:#000000"
       d="m 456.28613,656.09391 h -245.669"
       id="path12" />
    <path
       style="fill:none;stroke:#000000;stroke-dasharray:1.8898, 0.9449"
       d="m 181.80413,164.75391 v 491.34"
       id="path13" />
    <path
       d="M 181.80437,164.7921 H 465.26894 V 270.61887 H 181.80437 Z"
       style="fill:none;stroke:#000000"
       id="path14" />
    <path
       d="m 181.80437,550.22831 h 283.46457 v 105.8268 H 181.80437 Z"
       style="fill:none;stroke:#000000"
       id="path15" />
    <path
       d="M 612.67051,529.13851 H 257.39492 v -234.3307 h 355.27559 z"
       style="fill:none;stroke:#000000"
       id="path16" />
    <path
       style="fill:none;stroke:#000000;stroke-dasharray:1.8898, 0.9449"
       d="m 612.67053,529.13391 -355.2754,-234.33"
       id="path17" />
    <path
       style="fill:none;stroke:#000000;stroke-dasharray:1.8898, 0.9449"
       d="m 257.39513,529.13391 355.2754,-234.33"
       id="path18" />
    <path
       d="M 688.26107,244.12438 H 911.25319 V 580.50231 H 688.26107 Z"
       style="fill:none;stroke:#000000"
       id="path19" />
    <path
       style="fill:none;stroke:#000000;stroke-dasharray:1.8898, 0.9449"
       d="m 688.26113,244.12391 222.992,336.38"
       id="path20" />
    <path
       style="fill:none;stroke:#000000;stroke-dasharray:1.8898, 0.9449"
       d="m 911.25313,244.12391 -222.992,336.38"
       id="path21" />
    <path
       d="m 1035.9776,410.42361 a 60.472441,60.472441 0 0 0 -120.94488,0 60.472441,60.472441 0 0 0 120.94488,0 z"
       style="fill:none;stroke:#000000"
       id="path22" />
  </g>
</svg>
